<mxfile host="app.diagrams.net" modified="2023-12-11T03:18:18.915Z" agent="Mozilla/5.0 (Windows NT 10.0; Win64; x64) AppleWebKit/537.36 (KHTML, like Gecko) Chrome/120.0.0.0 Safari/537.36" etag="hn-EOczfNjEQZcCgVbQI" version="22.1.7" type="github">
  <diagram name="Page-1" id="Bew-Afq8IpO82VKAX2fW">
    <mxGraphModel dx="993" dy="628" grid="1" gridSize="10" guides="1" tooltips="1" connect="1" arrows="1" fold="1" page="1" pageScale="1" pageWidth="850" pageHeight="1100" math="0" shadow="0">
      <root>
        <mxCell id="0" />
        <mxCell id="1" parent="0" />
        <mxCell id="bLCXfE87xGluuzmN4trT-1" value="&lt;h2&gt;&lt;b&gt;START&lt;/b&gt;&lt;/h2&gt;" style="strokeWidth=2;html=1;shape=mxgraph.flowchart.terminator;whiteSpace=wrap;" vertex="1" parent="1">
          <mxGeometry x="425" y="60" width="100" height="60" as="geometry" />
        </mxCell>
        <mxCell id="bLCXfE87xGluuzmN4trT-3" value="กำหนดค่าตัวเลขในตัวแปรอาเรย์&lt;br&gt;R[ ]" style="shape=parallelogram;html=1;strokeWidth=2;perimeter=parallelogramPerimeter;whiteSpace=wrap;rounded=1;arcSize=12;size=0.23;fontStyle=1;fontSize=14;" vertex="1" parent="1">
          <mxGeometry x="315" y="170" width="310" height="60" as="geometry" />
        </mxCell>
        <mxCell id="bLCXfE87xGluuzmN4trT-7" value="R[ i ] % 11 == 0" style="strokeWidth=2;html=1;shape=mxgraph.flowchart.decision;whiteSpace=wrap;fontStyle=1" vertex="1" parent="1">
          <mxGeometry x="405" y="280" width="140" height="100" as="geometry" />
        </mxCell>
        <mxCell id="bLCXfE87xGluuzmN4trT-8" value="แสดงผล&lt;br&gt;1) จำนวนที่หาร 11 แล้ว == 0&lt;br&gt;2) Index ของจำนวนที่หาร 11 แล้ว == 0" style="shape=parallelogram;html=1;strokeWidth=2;perimeter=parallelogramPerimeter;whiteSpace=wrap;rounded=1;arcSize=12;size=0.23;fontStyle=1;fontSize=14;align=center;" vertex="1" parent="1">
          <mxGeometry x="270" y="420" width="410" height="80" as="geometry" />
        </mxCell>
        <mxCell id="bLCXfE87xGluuzmN4trT-9" value="" style="verticalLabelPosition=bottom;verticalAlign=top;html=1;shape=mxgraph.flowchart.on-page_reference;" vertex="1" parent="1">
          <mxGeometry x="465" y="550" width="20" height="20" as="geometry" />
        </mxCell>
        <mxCell id="bLCXfE87xGluuzmN4trT-10" value="&lt;h2&gt;END&lt;/h2&gt;" style="strokeWidth=2;html=1;shape=mxgraph.flowchart.terminator;whiteSpace=wrap;" vertex="1" parent="1">
          <mxGeometry x="425" y="610" width="100" height="60" as="geometry" />
        </mxCell>
        <mxCell id="bLCXfE87xGluuzmN4trT-11" value="" style="endArrow=classic;html=1;rounded=0;entryX=0.515;entryY=0.017;entryDx=0;entryDy=0;entryPerimeter=0;exitX=0.5;exitY=1;exitDx=0;exitDy=0;exitPerimeter=0;" edge="1" parent="1" source="bLCXfE87xGluuzmN4trT-1" target="bLCXfE87xGluuzmN4trT-3">
          <mxGeometry width="50" height="50" relative="1" as="geometry">
            <mxPoint x="430" y="150" as="sourcePoint" />
            <mxPoint x="480" y="100" as="targetPoint" />
          </mxGeometry>
        </mxCell>
        <mxCell id="bLCXfE87xGluuzmN4trT-12" value="" style="endArrow=classic;html=1;rounded=0;exitX=0.515;exitY=1.029;exitDx=0;exitDy=0;exitPerimeter=0;entryX=0.502;entryY=-0.043;entryDx=0;entryDy=0;entryPerimeter=0;" edge="1" parent="1" source="bLCXfE87xGluuzmN4trT-3">
          <mxGeometry width="50" height="50" relative="1" as="geometry">
            <mxPoint x="450" y="310" as="sourcePoint" />
            <mxPoint x="475.0400000000002" y="269.14" as="targetPoint" />
          </mxGeometry>
        </mxCell>
        <mxCell id="bLCXfE87xGluuzmN4trT-14" value="" style="endArrow=classic;html=1;rounded=0;entryX=0.5;entryY=-0.032;entryDx=0;entryDy=0;entryPerimeter=0;exitX=0.499;exitY=1.02;exitDx=0;exitDy=0;exitPerimeter=0;" edge="1" parent="1" source="bLCXfE87xGluuzmN4trT-7" target="bLCXfE87xGluuzmN4trT-8">
          <mxGeometry width="50" height="50" relative="1" as="geometry">
            <mxPoint x="450" y="430" as="sourcePoint" />
            <mxPoint x="500" y="380" as="targetPoint" />
          </mxGeometry>
        </mxCell>
        <mxCell id="bLCXfE87xGluuzmN4trT-15" value="" style="endArrow=classic;html=1;rounded=0;entryX=0.55;entryY=-0.084;entryDx=0;entryDy=0;entryPerimeter=0;exitX=0.502;exitY=1.031;exitDx=0;exitDy=0;exitPerimeter=0;" edge="1" parent="1" source="bLCXfE87xGluuzmN4trT-8" target="bLCXfE87xGluuzmN4trT-9">
          <mxGeometry width="50" height="50" relative="1" as="geometry">
            <mxPoint x="450" y="550" as="sourcePoint" />
            <mxPoint x="500" y="500" as="targetPoint" />
          </mxGeometry>
        </mxCell>
        <mxCell id="bLCXfE87xGluuzmN4trT-16" value="" style="endArrow=classic;html=1;rounded=0;entryX=0.489;entryY=-0.033;entryDx=0;entryDy=0;entryPerimeter=0;exitX=0.467;exitY=1.078;exitDx=0;exitDy=0;exitPerimeter=0;" edge="1" parent="1" source="bLCXfE87xGluuzmN4trT-9" target="bLCXfE87xGluuzmN4trT-10">
          <mxGeometry width="50" height="50" relative="1" as="geometry">
            <mxPoint x="450" y="620" as="sourcePoint" />
            <mxPoint x="500" y="570" as="targetPoint" />
          </mxGeometry>
        </mxCell>
        <mxCell id="bLCXfE87xGluuzmN4trT-17" value="" style="endArrow=none;html=1;rounded=0;entryX=0;entryY=0.5;entryDx=0;entryDy=0;entryPerimeter=0;" edge="1" parent="1" target="bLCXfE87xGluuzmN4trT-7">
          <mxGeometry width="50" height="50" relative="1" as="geometry">
            <mxPoint x="170" y="330" as="sourcePoint" />
            <mxPoint x="530" y="400" as="targetPoint" />
          </mxGeometry>
        </mxCell>
        <mxCell id="bLCXfE87xGluuzmN4trT-18" value="" style="endArrow=none;html=1;rounded=0;" edge="1" parent="1">
          <mxGeometry width="50" height="50" relative="1" as="geometry">
            <mxPoint x="170" y="560" as="sourcePoint" />
            <mxPoint x="170" y="330" as="targetPoint" />
          </mxGeometry>
        </mxCell>
        <mxCell id="bLCXfE87xGluuzmN4trT-19" value="" style="endArrow=classic;html=1;rounded=0;entryX=0;entryY=0.5;entryDx=0;entryDy=0;entryPerimeter=0;" edge="1" parent="1" target="bLCXfE87xGluuzmN4trT-9">
          <mxGeometry width="50" height="50" relative="1" as="geometry">
            <mxPoint x="170" y="560" as="sourcePoint" />
            <mxPoint x="530" y="400" as="targetPoint" />
          </mxGeometry>
        </mxCell>
        <mxCell id="bLCXfE87xGluuzmN4trT-20" value="6096006140 ปฏิพล กันโฮมภู" style="text;align=center;fontStyle=1;verticalAlign=middle;spacingLeft=3;spacingRight=3;strokeColor=#b85450;rotatable=0;points=[[0,0.5],[1,0.5]];portConstraint=eastwest;html=1;fontSize=17;fillColor=#f8cecc;" vertex="1" parent="1">
          <mxGeometry x="150" y="620" width="240" height="26" as="geometry" />
        </mxCell>
        <mxCell id="bLCXfE87xGluuzmN4trT-21" value="TRUE" style="text;align=center;fontStyle=1;verticalAlign=middle;spacingLeft=3;spacingRight=3;strokeColor=none;rotatable=0;points=[[0,0.5],[1,0.5]];portConstraint=eastwest;html=1;" vertex="1" parent="1">
          <mxGeometry x="465" y="380" width="80" height="26" as="geometry" />
        </mxCell>
        <mxCell id="bLCXfE87xGluuzmN4trT-22" value="FALSE" style="text;align=center;fontStyle=1;verticalAlign=middle;spacingLeft=3;spacingRight=3;strokeColor=none;rotatable=0;points=[[0,0.5],[1,0.5]];portConstraint=eastwest;html=1;" vertex="1" parent="1">
          <mxGeometry x="235" y="300" width="80" height="26" as="geometry" />
        </mxCell>
      </root>
    </mxGraphModel>
  </diagram>
</mxfile>
